<svg data-v-423bf9ae="" xmlns="http://www.w3.org/2000/svg" viewBox="0 0 230.96727208130068 191" class="iconAboveSlogan"><!----><defs data-v-423bf9ae=""><linearGradient data-v-423bf9ae="" gradientTransform="rotate(25)" id="4c431ce0-fee3-461b-a722-a181d22502c7" x1="0%" y1="0%" x2="100%" y2="0%"><stop data-v-423bf9ae="" offset="0%" style="stop-color: rgb(48, 34, 58); stop-opacity: 1;"></stop><stop data-v-423bf9ae="" offset="100%" style="stop-color: rgb(241, 56, 0); stop-opacity: 1;"></stop></linearGradient></defs><!----><g data-v-423bf9ae="" id="2ae449c0-8803-4e5a-9a59-d0d40d0a38ee" fill="#ffffff" transform="matrix(4.680187667055749,0,0,4.680187667055749,-6.739468262422534,85.96411282466715)"><path d="M4.97 13.92L4.97 13.92L4.97 13.92Q3.01 13.92 3.01 12.04L3.01 12.04L3.01 7.83L1.44 7.83L1.44 6.59L3.01 6.59L3.01 4.31L4.41 3.64L4.41 6.59L6.82 6.59L6.82 7.83L4.41 7.83L4.41 11.70L4.41 11.70Q4.41 12.18 4.63 12.42L4.63 12.42L4.63 12.42Q4.86 12.66 5.43 12.66L5.43 12.66L5.43 12.66Q6.06 12.66 6.69 12.29L6.69 12.29L6.54 13.59L6.54 13.59Q5.92 13.92 4.97 13.92ZM15.41 12.91L15.41 12.91L15.41 12.91Q14.49 13.92 12.94 13.92L12.94 13.92L12.94 13.92Q11.38 13.92 10.46 12.92L10.46 12.92L10.46 12.92Q9.55 11.91 9.55 10.18L9.55 10.18L9.55 10.18Q9.55 8.44 10.46 7.43L10.46 7.43L10.46 7.43Q11.38 6.43 12.94 6.43L12.94 6.43L12.94 6.43Q14.49 6.43 15.41 7.43L15.41 7.43L15.41 7.43Q16.32 8.44 16.32 10.16L16.32 10.16L16.32 10.16Q16.32 11.90 15.41 12.91ZM11.49 11.95L11.49 11.95L11.49 11.95Q12.00 12.60 12.94 12.60L12.94 12.60L12.94 12.60Q13.87 12.60 14.39 11.94L14.39 11.94L14.39 11.94Q14.91 11.28 14.91 10.16L14.91 10.16L14.91 10.16Q14.91 9.04 14.40 8.39L14.40 8.39L14.40 8.39Q13.89 7.74 12.94 7.74L12.94 7.74L12.94 7.74Q11.98 7.74 11.48 8.38L11.48 8.38L11.48 8.38Q10.98 9.02 10.98 10.18L10.98 10.18L10.98 10.18Q10.98 11.30 11.49 11.95ZM21.06 13.92L21.06 13.92L21.06 13.92Q19.89 13.92 19.17 13.29L19.17 13.29L19.17 13.29Q18.44 12.67 18.44 11.52L18.44 11.52L18.44 11.52Q18.44 10.36 19.26 9.76L19.26 9.76L19.26 9.76Q20.08 9.16 21.24 9.16L21.24 9.16L21.24 9.16Q22.30 9.16 23.10 9.58L23.10 9.58L23.10 9.09L23.10 9.09Q23.10 7.64 21.64 7.64L21.64 7.64L21.64 7.64Q20.54 7.64 19.36 8.39L19.36 8.39L18.94 7.24L18.94 7.24Q20.22 6.43 21.77 6.43L21.77 6.43L21.77 6.43Q24.46 6.43 24.46 9.04L24.46 9.04L24.46 13.75L23.10 13.75L23.10 13.13L23.10 13.13Q22.29 13.92 21.06 13.92ZM21.28 12.68L21.28 12.68L21.28 12.68Q22.32 12.68 23.10 11.84L23.10 11.84L23.10 10.77L23.10 10.77Q22.36 10.35 21.45 10.35L21.45 10.35L21.45 10.35Q20.73 10.35 20.26 10.65L20.26 10.65L20.26 10.65Q19.78 10.95 19.78 11.52L19.78 11.52L19.78 11.52Q19.78 12.05 20.18 12.37L20.18 12.37L20.18 12.37Q20.58 12.68 21.28 12.68ZM30.18 13.92L30.18 13.92L30.18 13.92Q29.33 13.92 28.59 13.57L28.59 13.57L28.59 13.57Q27.86 13.23 27.40 12.64L27.40 12.64L28.34 11.82L28.34 11.82Q29.18 12.71 30.28 12.71L30.28 12.71L30.28 12.71Q30.84 12.71 31.20 12.50L31.20 12.50L31.20 12.50Q31.56 12.28 31.56 11.87L31.56 11.87L31.56 11.87Q31.56 11.30 29.97 10.65L29.97 10.65L29.97 10.65Q29.95 10.64 29.93 10.63L29.93 10.63L29.93 10.63Q29.92 10.63 29.89 10.61L29.89 10.61L29.89 10.61Q29.86 10.60 29.84 10.59L29.84 10.59L29.84 10.59Q29.82 10.58 29.79 10.57L29.79 10.57L29.79 10.57Q29.19 10.32 28.87 10.16L28.87 10.16L28.87 10.16Q28.55 10.00 28.18 9.73L28.18 9.73L28.18 9.73Q27.82 9.46 27.66 9.13L27.66 9.13L27.66 9.13Q27.50 8.79 27.50 8.34L27.50 8.34L27.50 8.34Q27.50 7.46 28.25 6.94L28.25 6.94L28.25 6.94Q28.99 6.43 30.14 6.43L30.14 6.43L30.14 6.43Q31.74 6.43 32.72 7.55L32.72 7.55L31.79 8.32L31.79 8.32Q31.02 7.63 30.09 7.63L30.09 7.63L30.09 7.63Q29.51 7.63 29.16 7.83L29.16 7.83L29.16 7.83Q28.81 8.02 28.81 8.36L28.81 8.36L28.81 8.36Q28.81 8.85 30.35 9.45L30.35 9.45L30.35 9.45Q30.41 9.48 30.44 9.49L30.44 9.49L30.44 9.49Q30.94 9.69 31.16 9.79L31.16 9.79L31.16 9.79Q31.39 9.88 31.79 10.11L31.79 10.11L31.79 10.11Q32.19 10.33 32.38 10.54L32.38 10.54L32.38 10.54Q32.56 10.75 32.72 11.10L32.72 11.10L32.72 11.10Q32.87 11.44 32.87 11.84L32.87 11.84L32.87 11.84Q32.87 12.81 32.14 13.36L32.14 13.36L32.14 13.36Q31.42 13.92 30.18 13.92ZM39.47 13.92L39.47 13.92L39.47 13.92Q37.51 13.92 37.51 12.04L37.51 12.04L37.51 7.83L35.94 7.83L35.94 6.59L37.51 6.59L37.51 4.31L38.91 3.64L38.91 6.59L41.31 6.59L41.31 7.83L38.91 7.83L38.91 11.70L38.91 11.70Q38.91 12.18 39.13 12.42L39.13 12.42L39.13 12.42Q39.35 12.66 39.93 12.66L39.93 12.66L39.93 12.66Q40.56 12.66 41.19 12.29L41.19 12.29L41.03 13.59L41.03 13.59Q40.42 13.92 39.47 13.92ZM47.07 16.46L45.64 16.46L46.72 13.58L44.07 6.59L45.50 6.59L47.18 11.20L47.18 11.20Q47.28 11.48 47.40 11.89L47.40 11.89L47.40 11.89Q47.47 11.65 47.64 11.20L47.64 11.20L49.34 6.59L50.79 6.59L47.07 16.46Z"></path></g><!----><g data-v-423bf9ae="" id="121a4e03-a586-4690-91d6-5271a51a8010" transform="matrix(7.5,0,0,7.5,56,-15)" stroke="none" fill="#ffffff"><path d="M7.969 2L6 13.844 5.969 14h2.063l1.969-11.844.031-.156H7.969zM5 3.813l-.531.344-4 2.5L0 6.938v2.126l.469.281 4 2.5.531.344V9.814L2.094 8.001 5 6.188V3.813zm6 0v2.375l2.906 1.813L11 9.814v2.375l.531-.344 4-2.5.469-.281V6.938l-.469-.281-4-2.5L11 3.813z"></path></g><!----><g data-v-423bf9ae="" id="d2d7d255-9ac9-4d77-ae87-99f3a880d8a7" fill="#ffffff" transform="matrix(1.195070422270031,0,0,1.195070422270031,29.23511804572263,197.15537101029807)"><path d="M4.56 13.92L4.56 13.92L4.56 13.92Q3.57 13.92 2.82 13.48L2.82 13.48L2.82 13.48Q2.07 13.05 1.64 12.31L1.64 12.31L1.64 12.31Q1.20 11.58 0.99 10.70L0.99 10.70L0.99 10.70Q0.78 9.83 0.78 8.85L0.78 8.85L0.78 8.85Q0.78 7.88 1.00 7.01L1.00 7.01L1.00 7.01Q1.22 6.13 1.66 5.40L1.66 5.40L1.66 5.40Q2.10 4.66 2.85 4.22L2.85 4.22L2.85 4.22Q3.60 3.78 4.56 3.78L4.56 3.78L4.56 3.78Q5.67 3.78 6.38 4.32L6.38 4.32L6.38 4.32Q7.08 4.86 7.43 5.68L7.43 5.68L6.15 6.31L6.15 6.31Q5.84 5.74 5.48 5.44L5.48 5.44L5.48 5.44Q5.12 5.14 4.56 5.14L4.56 5.14L4.56 5.14Q3.77 5.14 3.23 5.73L3.23 5.73L3.23 5.73Q2.69 6.33 2.48 7.13L2.48 7.13L2.48 7.13Q2.28 7.92 2.28 8.85L2.28 8.85L2.28 8.85Q2.28 10.36 2.87 11.46L2.87 11.46L2.87 11.46Q3.46 12.56 4.56 12.56L4.56 12.56L4.56 12.56Q5.61 12.56 6.20 11.30L6.20 11.30L7.50 11.80L7.50 11.80Q6.64 13.92 4.56 13.92ZM11.26 13.75L9.98 13.75L10.39 11.09L8.78 11.09L8.97 9.86L10.57 9.86L10.91 7.63L9.35 7.63L9.53 6.41L11.09 6.41L11.47 3.95L12.74 3.95L12.36 6.41L14.21 6.41L14.59 3.95L15.86 3.95L15.48 6.41L17.09 6.41L16.91 7.63L15.30 7.63L14.95 9.86L16.52 9.86L16.32 11.09L14.77 11.09L14.36 13.75L13.09 13.75L13.50 11.09L11.66 11.09L11.26 13.75ZM12.18 7.63L11.84 9.86L13.68 9.86L14.03 7.63L12.18 7.63ZM32.65 11.63L34.36 13.75L32.56 13.75L31.77 12.74L31.77 12.74Q30.55 13.92 28.87 13.92L28.87 13.92L28.87 13.92Q27.58 13.92 26.80 13.17L26.80 13.17L26.80 13.17Q26.01 12.43 26.01 11.21L26.01 11.21L26.01 11.21Q26.01 10.18 26.59 9.51L26.59 9.51L26.59 9.51Q27.16 8.85 28.20 8.25L28.20 8.25L28.20 8.25Q27.65 7.50 27.41 6.98L27.41 6.98L27.41 6.98Q27.16 6.45 27.16 5.92L27.16 5.92L27.16 5.92Q27.16 4.93 27.83 4.35L27.83 4.35L27.83 4.35Q28.50 3.78 29.54 3.78L29.54 3.78L29.54 3.78Q30.56 3.78 31.22 4.38L31.22 4.38L31.22 4.38Q31.88 4.98 31.88 5.95L31.88 5.95L31.88 5.95Q31.88 6.76 31.41 7.35L31.41 7.35L31.41 7.35Q30.94 7.94 30.11 8.47L30.11 8.47L31.72 10.47L31.72 10.47Q32.00 9.76 32.05 9.06L32.05 9.06L33.40 9.06L33.40 9.06Q33.33 10.44 32.65 11.63L32.65 11.63ZM28.48 5.91L28.48 5.91L28.48 5.91Q28.48 6.24 28.67 6.59L28.67 6.59L28.67 6.59Q28.87 6.94 29.37 7.57L29.37 7.57L29.37 7.57Q29.95 7.20 30.25 6.83L30.25 6.83L30.25 6.83Q30.56 6.47 30.56 5.98L30.56 5.98L30.56 5.98Q30.56 5.49 30.26 5.20L30.26 5.20L30.26 5.20Q29.96 4.91 29.50 4.91L29.50 4.91L29.50 4.91Q29.04 4.91 28.76 5.18L28.76 5.18L28.76 5.18Q28.48 5.45 28.48 5.91ZM29.09 12.60L29.09 12.60L29.09 12.60Q30.14 12.60 30.95 11.72L30.95 11.72L28.94 9.18L28.94 9.18Q28.20 9.66 27.81 10.09L27.81 10.09L27.81 10.09Q27.43 10.53 27.43 11.12L27.43 11.12L27.43 11.12Q27.43 11.77 27.88 12.19L27.88 12.19L27.88 12.19Q28.34 12.60 29.09 12.60ZM48.15 13.75L46.72 13.75L46.72 5.32L43.88 5.32L43.88 3.95L50.99 3.95L50.99 5.32L48.15 5.32L48.15 13.75ZM56.15 13.92L56.15 13.92L56.15 13.92Q54.99 13.92 54.10 13.27L54.10 13.27L54.10 13.27Q53.20 12.61 52.84 11.58L52.84 11.58L54.17 11.09L54.17 11.09Q54.46 11.76 55.01 12.17L55.01 12.17L55.01 12.17Q55.57 12.57 56.25 12.57L56.25 12.57L56.25 12.57Q56.97 12.57 57.38 12.19L57.38 12.19L57.38 12.19Q57.79 11.82 57.79 11.10L57.79 11.10L57.79 11.10Q57.79 10.47 57.26 10.02L57.26 10.02L57.26 10.02Q56.73 9.56 55.80 9.16L55.80 9.16L55.80 9.16Q55.22 8.90 54.85 8.69L54.85 8.69L54.85 8.69Q54.49 8.48 54.04 8.13L54.04 8.13L54.04 8.13Q53.59 7.78 53.38 7.32L53.38 7.32L53.38 7.32Q53.16 6.86 53.16 6.27L53.16 6.27L53.16 6.27Q53.16 5.22 53.95 4.50L53.95 4.50L53.95 4.50Q54.74 3.78 56.04 3.78L56.04 3.78L56.04 3.78Q57.08 3.78 57.83 4.31L57.83 4.31L57.83 4.31Q58.58 4.84 58.81 5.68L58.81 5.68L57.51 6.12L57.51 6.12Q57.32 5.68 56.92 5.40L56.92 5.40L56.92 5.40Q56.52 5.11 55.97 5.11L55.97 5.11L55.97 5.11Q55.37 5.11 54.99 5.43L54.99 5.43L54.99 5.43Q54.61 5.74 54.61 6.27L54.61 6.27L54.61 6.27Q54.61 6.55 54.75 6.78L54.75 6.78L54.75 6.78Q54.88 7.00 55.17 7.20L55.17 7.20L55.17 7.20Q55.47 7.41 55.71 7.53L55.71 7.53L55.71 7.53Q55.94 7.64 56.41 7.85L56.41 7.85L56.41 7.85Q56.43 7.87 56.45 7.88L56.45 7.88L56.45 7.88Q56.46 7.88 56.49 7.89L56.49 7.89L56.49 7.89Q56.52 7.90 56.53 7.91L56.53 7.91L56.53 7.91Q57.09 8.18 57.48 8.41L57.48 8.41L57.48 8.41Q57.88 8.64 58.32 9.02L58.32 9.02L58.32 9.02Q58.77 9.39 59.01 9.91L59.01 9.91L59.01 9.91Q59.25 10.43 59.25 11.06L59.25 11.06L59.25 11.06Q59.25 12.38 58.37 13.15L58.37 13.15L58.37 13.15Q57.48 13.92 56.15 13.92ZM73.07 13.92L73.07 13.92L73.07 13.92Q71.62 13.92 70.79 12.92L70.79 12.92L70.79 12.92Q69.96 11.93 69.96 10.16L69.96 10.16L69.96 10.16Q69.96 8.43 70.81 7.43L70.81 7.43L70.81 7.43Q71.65 6.43 73.04 6.43L73.04 6.43L73.04 6.43Q74.21 6.43 74.89 7.10L74.89 7.10L74.89 4.30L76.29 3.64L76.29 13.75L74.89 13.75L74.89 13.17L74.89 13.17Q74.26 13.92 73.07 13.92ZM73.25 12.60L73.25 12.60L73.25 12.60Q74.38 12.60 74.89 11.75L74.89 11.75L74.89 8.55L74.89 8.55Q74.37 7.74 73.23 7.74L73.23 7.74L73.23 7.74Q72.34 7.74 71.86 8.37L71.86 8.37L71.86 8.37Q71.37 8.99 71.37 10.16L71.37 10.16L71.37 10.16Q71.37 11.24 71.88 11.92L71.88 11.92L71.88 11.92Q72.38 12.60 73.25 12.60ZM85.12 9.84L85.12 9.84L85.12 9.84Q85.12 10.37 85.08 10.72L85.08 10.72L80.15 10.72L80.15 10.72Q80.30 11.62 80.80 12.14L80.80 12.14L80.80 12.14Q81.30 12.66 82.10 12.66L82.10 12.66L82.10 12.66Q83.03 12.66 83.72 12.01L83.72 12.01L84.55 12.91L84.55 12.91Q83.54 13.92 82.08 13.92L82.08 13.92L82.08 13.92Q80.53 13.92 79.63 12.87L79.63 12.87L79.63 12.87Q78.74 11.83 78.74 10.16L78.74 10.16L78.74 10.16Q78.74 8.41 79.64 7.42L79.64 7.42L79.64 7.42Q80.54 6.43 82.08 6.43L82.08 6.43L82.08 6.43Q83.41 6.43 84.27 7.29L84.27 7.29L84.27 7.29Q85.12 8.16 85.12 9.84ZM80.12 9.51L80.12 9.51L83.73 9.51L83.73 9.51Q83.69 8.55 83.22 8.11L83.22 8.11L83.22 8.11Q82.74 7.66 82.08 7.66L82.08 7.66L82.08 7.66Q81.21 7.66 80.72 8.14L80.72 8.14L80.72 8.14Q80.23 8.62 80.12 9.51ZM91.20 13.75L89.92 13.75L87.16 6.59L88.63 6.59L90.36 11.26L90.36 11.26Q90.51 11.69 90.58 12.01L90.58 12.01L90.58 12.01Q90.65 11.69 90.80 11.26L90.80 11.26L92.50 6.59L93.95 6.59L91.20 13.75ZM102.37 9.84L102.37 9.84L102.37 9.84Q102.37 10.37 102.33 10.72L102.33 10.72L97.40 10.72L97.40 10.72Q97.55 11.62 98.05 12.14L98.05 12.14L98.05 12.14Q98.55 12.66 99.34 12.66L99.34 12.66L99.34 12.66Q100.28 12.66 100.97 12.01L100.97 12.01L101.79 12.91L101.79 12.91Q100.79 13.92 99.33 13.92L99.33 13.92L99.33 13.92Q97.78 13.92 96.88 12.87L96.88 12.87L96.88 12.87Q95.98 11.83 95.98 10.16L95.98 10.16L95.98 10.16Q95.98 8.41 96.89 7.42L96.89 7.42L96.89 7.42Q97.79 6.43 99.33 6.43L99.33 6.43L99.33 6.43Q100.66 6.43 101.51 7.29L101.51 7.29L101.51 7.29Q102.37 8.16 102.37 9.84ZM97.37 9.51L97.37 9.51L100.98 9.51L100.98 9.51Q100.94 8.55 100.46 8.11L100.46 8.11L100.46 8.11Q99.99 7.66 99.33 7.66L99.33 7.66L99.33 7.66Q98.46 7.66 97.97 8.14L97.97 8.14L97.97 8.14Q97.48 8.62 97.37 9.51ZM108.50 3.64L108.50 12.50L110.54 12.50L110.54 13.75L105.04 13.75L105.04 12.50L107.10 12.50L107.10 4.87L105.41 4.87L104.76 3.64L108.50 3.64ZM118.89 12.91L118.89 12.91L118.89 12.91Q117.98 13.92 116.42 13.92L116.42 13.92L116.42 13.92Q114.87 13.92 113.95 12.92L113.95 12.92L113.95 12.92Q113.04 11.91 113.04 10.18L113.04 10.18L113.04 10.18Q113.04 8.44 113.95 7.43L113.95 7.43L113.95 7.43Q114.87 6.43 116.42 6.43L116.42 6.43L116.42 6.43Q117.98 6.43 118.89 7.43L118.89 7.43L118.89 7.43Q119.81 8.44 119.81 10.16L119.81 10.16L119.81 10.16Q119.81 11.90 118.89 12.91ZM114.97 11.95L114.97 11.95L114.97 11.95Q115.49 12.60 116.42 12.60L116.42 12.60L116.42 12.60Q117.36 12.60 117.88 11.94L117.88 11.94L117.88 11.94Q118.40 11.28 118.40 10.16L118.40 10.16L118.40 10.16Q118.40 9.04 117.89 8.39L117.89 8.39L117.89 8.39Q117.38 7.74 116.42 7.74L116.42 7.74L116.42 7.74Q115.47 7.74 114.97 8.38L114.97 8.38L114.97 8.38Q114.46 9.02 114.46 10.18L114.46 10.18L114.46 10.18Q114.46 11.30 114.97 11.95ZM123.47 15.92L122.07 16.58L122.07 6.59L123.47 6.59L123.47 7.17L123.47 7.17Q124.21 6.43 125.31 6.43L125.31 6.43L125.31 6.43Q126.76 6.43 127.60 7.42L127.60 7.42L127.60 7.42Q128.44 8.41 128.44 10.16L128.44 10.16L128.44 10.16Q128.44 11.91 127.57 12.92L127.57 12.92L127.57 12.92Q126.70 13.92 125.33 13.92L125.33 13.92L125.33 13.92Q124.14 13.92 123.47 13.12L123.47 13.12L123.47 15.92ZM125.13 12.60L125.13 12.60L125.13 12.60Q126.03 12.60 126.52 11.97L126.52 11.97L126.52 11.97Q127.01 11.34 127.01 10.16L127.01 10.16L127.01 10.16Q127.01 9.04 126.51 8.39L126.51 8.39L126.51 8.39Q126.01 7.74 125.10 7.74L125.10 7.74L125.10 7.74Q124.01 7.74 123.47 8.58L123.47 8.58L123.47 11.75L123.47 11.75Q124.11 12.60 125.13 12.60ZM136.86 9.84L136.86 9.84L136.86 9.84Q136.86 10.37 136.82 10.72L136.82 10.72L131.89 10.72L131.89 10.72Q132.05 11.62 132.54 12.14L132.54 12.14L132.54 12.14Q133.04 12.66 133.84 12.66L133.84 12.66L133.84 12.66Q134.78 12.66 135.46 12.01L135.46 12.01L136.29 12.91L136.29 12.91Q135.28 13.92 133.83 13.92L133.83 13.92L133.83 13.92Q132.27 13.92 131.38 12.87L131.38 12.87L131.38 12.87Q130.48 11.83 130.48 10.16L130.48 10.16L130.48 10.16Q130.48 8.41 131.38 7.42L131.38 7.42L131.38 7.42Q132.29 6.43 133.83 6.43L133.83 6.43L133.83 6.43Q135.16 6.43 136.01 7.29L136.01 7.29L136.01 7.29Q136.86 8.16 136.86 9.84ZM131.87 9.51L131.87 9.51L135.48 9.51L135.48 9.51Q135.44 8.55 134.96 8.11L134.96 8.11L134.96 8.11Q134.48 7.66 133.83 7.66L133.83 7.66L133.83 7.66Q132.96 7.66 132.47 8.14L132.47 8.14L132.47 8.14Q131.98 8.62 131.87 9.51ZM144.10 6.43L144.10 6.43L144.10 6.43Q145.10 6.43 145.73 6.79L145.73 6.79L145.73 9.35L144.35 9.35L144.35 7.77L144.35 7.77Q144.26 7.76 144.06 7.76L144.06 7.76L144.06 7.76Q142.98 7.76 142.30 8.29L142.30 8.29L142.30 8.29Q141.62 8.82 141.62 9.81L141.62 9.81L141.62 12.50L143.67 12.50L143.67 13.75L138.70 13.75L138.70 12.50L140.20 12.50L140.20 7.83L138.70 7.83L138.70 6.59L141.53 6.59L141.53 7.77L141.53 7.77Q141.86 7.15 142.58 6.79L142.58 6.79L142.58 6.79Q143.30 6.43 144.10 6.43Z"></path></g></svg>