<svg data-v-fde0c5aa="" xmlns="http://www.w3.org/2000/svg" viewBox="0 0 300 300" class="font"><!----><defs data-v-fde0c5aa=""><linearGradient data-v-fde0c5aa="" gradientTransform="rotate(25)" id="a4883c82-76e7-48ab-b025-50df83c30141" x1="0%" y1="0%" x2="100%" y2="0%"><stop data-v-fde0c5aa="" offset="0%" stop-color="#30223A" stop-opacity="1"></stop><stop data-v-fde0c5aa="" offset="100%" stop-color="#F13800" stop-opacity="1"></stop></linearGradient></defs><rect data-v-fde0c5aa="" fill="url(#a4883c82-76e7-48ab-b025-50df83c30141)" x="0" y="0" width="300px" height="300px" class="logo-background-square"></rect><defs data-v-fde0c5aa=""><!----></defs><g data-v-fde0c5aa="" id="96b2b2f7-ed6f-417d-adae-56acd6a61c4e" fill="#ffffff" transform="matrix(4.457953187366868,0,0,4.457953187366868,33.58054715510557,105.19757280525249)"><path d="M4.97 13.92L4.97 13.92L4.97 13.92Q3.01 13.92 3.01 12.04L3.01 12.04L3.01 7.83L1.44 7.83L1.44 6.59L3.01 6.59L3.01 4.31L4.41 3.64L4.41 6.59L6.82 6.59L6.82 7.83L4.41 7.83L4.41 11.70L4.41 11.70Q4.41 12.18 4.63 12.42L4.63 12.42L4.63 12.42Q4.86 12.66 5.43 12.66L5.43 12.66L5.43 12.66Q6.06 12.66 6.69 12.29L6.69 12.29L6.54 13.59L6.54 13.59Q5.92 13.92 4.97 13.92ZM15.41 12.91L15.41 12.91L15.41 12.91Q14.49 13.92 12.94 13.92L12.94 13.92L12.94 13.92Q11.38 13.92 10.46 12.92L10.46 12.92L10.46 12.92Q9.55 11.91 9.55 10.18L9.55 10.18L9.55 10.18Q9.55 8.44 10.46 7.43L10.46 7.43L10.46 7.43Q11.38 6.43 12.94 6.43L12.94 6.43L12.94 6.43Q14.49 6.43 15.41 7.43L15.41 7.43L15.41 7.43Q16.32 8.44 16.32 10.16L16.32 10.16L16.32 10.16Q16.32 11.90 15.41 12.91ZM11.49 11.95L11.49 11.95L11.49 11.95Q12.00 12.60 12.94 12.60L12.94 12.60L12.94 12.60Q13.87 12.60 14.39 11.94L14.39 11.94L14.39 11.94Q14.91 11.28 14.91 10.16L14.91 10.16L14.91 10.16Q14.91 9.04 14.40 8.39L14.40 8.39L14.40 8.39Q13.89 7.74 12.94 7.74L12.94 7.74L12.94 7.74Q11.98 7.74 11.48 8.38L11.48 8.38L11.48 8.38Q10.98 9.02 10.98 10.18L10.98 10.18L10.98 10.18Q10.98 11.30 11.49 11.95ZM21.06 13.92L21.06 13.92L21.06 13.92Q19.89 13.92 19.17 13.29L19.17 13.29L19.17 13.29Q18.44 12.67 18.44 11.52L18.44 11.52L18.44 11.52Q18.44 10.36 19.26 9.76L19.26 9.76L19.26 9.76Q20.08 9.16 21.24 9.16L21.24 9.16L21.24 9.16Q22.30 9.16 23.10 9.58L23.10 9.58L23.10 9.09L23.10 9.09Q23.10 7.64 21.64 7.64L21.64 7.64L21.64 7.64Q20.54 7.64 19.36 8.39L19.36 8.39L18.94 7.24L18.94 7.24Q20.22 6.43 21.77 6.43L21.77 6.43L21.77 6.43Q24.46 6.43 24.46 9.04L24.46 9.04L24.46 13.75L23.10 13.75L23.10 13.13L23.10 13.13Q22.29 13.92 21.06 13.92ZM21.28 12.68L21.28 12.68L21.28 12.68Q22.32 12.68 23.10 11.84L23.10 11.84L23.10 10.77L23.10 10.77Q22.36 10.35 21.45 10.35L21.45 10.35L21.45 10.35Q20.73 10.35 20.26 10.65L20.26 10.65L20.26 10.65Q19.78 10.95 19.78 11.52L19.78 11.52L19.78 11.52Q19.78 12.05 20.18 12.37L20.18 12.37L20.18 12.37Q20.58 12.68 21.28 12.68ZM30.18 13.92L30.18 13.92L30.18 13.92Q29.33 13.92 28.59 13.57L28.59 13.57L28.59 13.57Q27.86 13.23 27.40 12.64L27.40 12.64L28.34 11.82L28.34 11.82Q29.18 12.71 30.28 12.71L30.28 12.71L30.28 12.71Q30.84 12.71 31.20 12.50L31.20 12.50L31.20 12.50Q31.56 12.28 31.56 11.87L31.56 11.87L31.56 11.87Q31.56 11.30 29.97 10.65L29.97 10.65L29.97 10.65Q29.95 10.64 29.93 10.63L29.93 10.63L29.93 10.63Q29.92 10.63 29.89 10.61L29.89 10.61L29.89 10.61Q29.86 10.60 29.84 10.59L29.84 10.59L29.84 10.59Q29.82 10.58 29.79 10.57L29.79 10.57L29.79 10.57Q29.19 10.32 28.87 10.16L28.87 10.16L28.87 10.16Q28.55 10.00 28.18 9.73L28.18 9.73L28.18 9.73Q27.82 9.46 27.66 9.13L27.66 9.13L27.66 9.13Q27.50 8.79 27.50 8.34L27.50 8.34L27.50 8.34Q27.50 7.46 28.25 6.94L28.25 6.94L28.25 6.94Q28.99 6.43 30.14 6.43L30.14 6.43L30.14 6.43Q31.74 6.43 32.72 7.55L32.72 7.55L31.79 8.32L31.79 8.32Q31.02 7.63 30.09 7.63L30.09 7.63L30.09 7.63Q29.51 7.63 29.16 7.83L29.16 7.83L29.16 7.83Q28.81 8.02 28.81 8.36L28.81 8.36L28.81 8.36Q28.81 8.85 30.35 9.45L30.35 9.45L30.35 9.45Q30.41 9.48 30.44 9.49L30.44 9.49L30.44 9.49Q30.94 9.69 31.16 9.79L31.16 9.79L31.16 9.79Q31.39 9.88 31.79 10.11L31.79 10.11L31.79 10.11Q32.19 10.33 32.38 10.54L32.38 10.54L32.38 10.54Q32.56 10.75 32.72 11.10L32.72 11.10L32.72 11.10Q32.87 11.44 32.87 11.84L32.87 11.84L32.87 11.84Q32.87 12.81 32.14 13.36L32.14 13.36L32.14 13.36Q31.42 13.92 30.18 13.92ZM39.47 13.92L39.47 13.92L39.47 13.92Q37.51 13.92 37.51 12.04L37.51 12.04L37.51 7.83L35.94 7.83L35.94 6.59L37.51 6.59L37.51 4.31L38.91 3.64L38.91 6.59L41.31 6.59L41.31 7.83L38.91 7.83L38.91 11.70L38.91 11.70Q38.91 12.18 39.13 12.42L39.13 12.42L39.13 12.42Q39.35 12.66 39.93 12.66L39.93 12.66L39.93 12.66Q40.56 12.66 41.19 12.29L41.19 12.29L41.03 13.59L41.03 13.59Q40.42 13.92 39.47 13.92ZM47.07 16.46L45.64 16.46L46.72 13.58L44.07 6.59L45.50 6.59L47.18 11.20L47.18 11.20Q47.28 11.48 47.40 11.89L47.40 11.89L47.40 11.89Q47.47 11.65 47.64 11.20L47.64 11.20L49.34 6.59L50.79 6.59L47.07 16.46Z"></path></g><!----><!----></svg>